<svg width="40" height="30" viewBox="0 0 40 30" fill="none" xmlns="http://www.w3.org/2000/svg">
<path d="M33.8838 2.51249C31.2945 1.33875 28.526 0.485722 25.6315 0C25.276 0.622678 24.8607 1.46019 24.5744 2.12643C21.4975 1.67811 18.4489 1.67811 15.4286 2.12643C15.1423 1.46019 14.7176 0.622678 14.3589 0C11.4613 0.485722 8.68959 1.34188 6.10032 2.51871C0.877738 10.165 -0.538019 17.6215 0.169861 24.972C3.63375 27.4782 6.99068 29.0007 10.291 29.9969C11.1058 28.9104 11.8326 27.7553 12.4586 26.538C11.2663 26.099 10.1242 25.5573 9.04512 24.9284C9.3314 24.7229 9.61143 24.5081 9.88197 24.287C16.4637 27.2696 23.6148 27.2696 30.1179 24.287C30.3916 24.5081 30.6716 24.7229 30.9547 24.9284C29.8725 25.5604 28.7273 26.1021 27.5349 26.5411C28.161 27.7553 28.8846 28.9135 29.7026 30C33.0061 29.0037 36.3661 27.4813 39.83 24.972C40.6606 16.4508 38.4111 9.06291 33.8838 2.51249ZM13.3553 20.4515C11.3795 20.4515 9.75925 18.6644 9.75925 16.4882C9.75925 14.312 11.3449 12.5218 13.3553 12.5218C15.3657 12.5218 16.9859 14.3088 16.9513 16.4882C16.9545 18.6644 15.3657 20.4515 13.3553 20.4515ZM26.6446 20.4515C24.6688 20.4515 23.0485 18.6644 23.0485 16.4882C23.0485 14.312 24.6342 12.5218 26.6446 12.5218C28.6549 12.5218 30.2752 14.3088 30.2406 16.4882C30.2406 18.6644 28.6549 20.4515 26.6446 20.4515Z" fill="white"/>
</svg>
