<svg width="40" height="30" viewBox="0 0 40 30" fill="none" xmlns="http://www.w3.org/2000/svg">
<path d="M39.0936 3.46224C38.4653 3.71752 37.8192 3.933 37.159 4.10798C37.9406 3.29828 38.5364 2.34559 38.9002 1.30308C38.9817 1.06942 38.8972 0.813639 38.6875 0.660773C38.4781 0.507835 38.1871 0.489514 37.9566 0.614684C36.5546 1.37637 35.0421 1.92378 33.4562 2.24382C31.8586 0.813854 29.6889 0 27.4457 0C22.7109 0 18.8588 3.52865 18.8588 7.86587C18.8588 8.20745 18.8824 8.54718 18.9291 8.88218C13.0536 8.40963 7.59128 5.76417 3.84035 1.54927C3.70667 1.39905 3.50074 1.31804 3.28988 1.33357C3.07894 1.34867 2.88933 1.45766 2.78277 1.6252C2.02199 2.82101 1.6198 4.18871 1.6198 5.58032C1.6198 7.47569 2.35847 9.27394 3.66339 10.6791C3.2666 10.5533 2.8816 10.396 2.5141 10.2091C2.31683 10.1085 2.07605 10.11 1.88003 10.213C1.68394 10.3159 1.56097 10.5052 1.55574 10.7122C1.5548 10.7471 1.5548 10.7819 1.5548 10.8173C1.5548 13.6464 3.21699 16.1935 5.75831 17.5817C5.53995 17.5618 5.32183 17.5328 5.10503 17.4948C4.88152 17.4557 4.65175 17.5275 4.50105 17.6836C4.35011 17.8396 4.30011 18.0571 4.36972 18.2557C5.31035 20.946 7.73214 22.9247 10.6599 23.528C8.23159 24.9213 5.45472 25.6511 2.53964 25.6511C1.93136 25.6511 1.31964 25.6183 0.720971 25.5534C0.423549 25.521 0.139174 25.6819 0.0378462 25.941C-0.0634819 26.2003 0.0439399 26.4892 0.296909 26.6378C4.04183 28.8374 8.37198 30 12.8191 30C21.5615 30 27.0306 26.2235 30.0789 23.0554C33.8803 19.105 36.0603 13.8762 36.0603 8.70985C36.0603 8.494 36.0567 8.27608 36.0495 8.05881C37.5492 7.02374 38.8404 5.77105 39.8911 4.33127C40.0507 4.11264 40.0335 3.82358 39.8485 3.62234C39.6641 3.42073 39.3563 3.35561 39.0936 3.46224Z" fill="white"/>
</svg>
